<svg width="512" height="512" viewBox="0 0 512 512" fill="none" xmlns="http://www.w3.org/2000/svg">
<g clip-path="url(#clip0_19_2)">
<rect width="512" height="512" rx="8" fill="#1A1A1A"/>
<g filter="url(#filter0_f_19_2)">
<circle cx="272" cy="256" r="400" fill="#111111"/>
</g>
<path d="M300.578 379.641L294.25 374.156L294.672 346.734L293.406 346.312C284.969 358.125 276.25 366.422 267.25 371.203C258.531 375.984 249.25 378.375 239.406 378.375C223.375 378.375 209.031 374.719 196.375 367.406C184 359.812 174.156 349.406 166.844 336.188C159.531 322.969 155.875 307.781 155.875 290.625C155.875 275.719 158.406 262.078 163.469 249.703C168.531 237.328 175.422 226.781 184.141 218.062C193.141 209.062 203.266 202.172 214.516 197.391C225.766 192.609 237.438 190.219 249.531 190.219C257.406 190.219 265.422 191.203 273.578 193.172C281.734 195.141 288.625 198.234 294.25 202.453C294.25 197.391 294.109 190.781 293.828 182.625C293.828 174.469 293.688 166.031 293.406 157.312C293.406 148.312 293.266 140.438 292.984 133.688C292.984 126.656 292.844 121.875 292.562 119.344L259.656 113.438L258.812 99.5156L320.828 82.2188L328.422 88.125C327.859 105.563 327.438 122.438 327.156 138.75C326.875 155.062 326.734 172.078 326.734 189.797L326.312 286.828C326.312 301.172 326.594 313.547 327.156 323.953C328 334.078 328.562 341.25 328.844 345.469L355.844 352.219V366.141L300.578 379.641ZM249.953 350.109C258.109 350.109 265.703 348.422 272.734 345.047C279.766 341.391 286.938 335.062 294.25 326.062V235.359C288.906 225.797 282.156 219.047 274 215.109C265.844 211.172 257.688 209.203 249.531 209.203C231.812 209.203 217.891 215.812 207.766 229.031C197.922 241.969 193 258.844 193 279.656C193 301.875 198.484 319.172 209.453 331.547C220.703 343.922 234.203 350.109 249.953 350.109Z" fill="#E2E8F0"/>
</g>
<defs>
<filter id="filter0_f_19_2" x="-528" y="-544" width="1600" height="1600" filterUnits="userSpaceOnUse" color-interpolation-filters="sRGB">
<feFlood flood-opacity="0" result="BackgroundImageFix"/>
<feBlend mode="normal" in="SourceGraphic" in2="BackgroundImageFix" result="shape"/>
<feGaussianBlur stdDeviation="200" result="effect1_foregroundBlur_19_2"/>
</filter>
<clipPath id="clip0_19_2">
<rect width="512" height="512" rx="8" fill="white"/>
</clipPath>
</defs>
</svg>
